<mxfile host="app.diagrams.net" modified="2024-06-24T11:21:55.470Z" agent="Mozilla/5.0 (Windows NT 10.0; Win64; x64) AppleWebKit/537.36 (KHTML, like Gecko) Chrome/126.0.0.0 Safari/537.36" etag="0iDzPOLTkMFk2YdLxK_R" version="24.6.2" type="device">
  <diagram name="Page-1" id="Dk_CblfQpoMhfjGfartr">
    <mxGraphModel dx="1195" dy="643" grid="1" gridSize="10" guides="1" tooltips="1" connect="1" arrows="1" fold="1" page="1" pageScale="1" pageWidth="1100" pageHeight="1700" background="none" math="0" shadow="0">
      <root>
        <mxCell id="0" />
        <mxCell id="1" parent="0" />
        <mxCell id="bBVAprVc6WiFZnPiGswY-14" style="edgeStyle=orthogonalEdgeStyle;rounded=0;orthogonalLoop=1;jettySize=auto;html=1;exitX=0.5;exitY=1;exitDx=0;exitDy=0;entryX=0.5;entryY=0;entryDx=0;entryDy=0;" edge="1" parent="1" source="bBVAprVc6WiFZnPiGswY-1" target="bBVAprVc6WiFZnPiGswY-2">
          <mxGeometry relative="1" as="geometry" />
        </mxCell>
        <mxCell id="bBVAprVc6WiFZnPiGswY-1" value="Start" style="rounded=1;whiteSpace=wrap;html=1;" vertex="1" parent="1">
          <mxGeometry x="485" y="50" width="175" height="30" as="geometry" />
        </mxCell>
        <mxCell id="bBVAprVc6WiFZnPiGswY-15" style="edgeStyle=orthogonalEdgeStyle;rounded=0;orthogonalLoop=1;jettySize=auto;html=1;exitX=0.5;exitY=1;exitDx=0;exitDy=0;entryX=0.5;entryY=0;entryDx=0;entryDy=0;" edge="1" parent="1" source="bBVAprVc6WiFZnPiGswY-2" target="bBVAprVc6WiFZnPiGswY-3">
          <mxGeometry relative="1" as="geometry" />
        </mxCell>
        <mxCell id="bBVAprVc6WiFZnPiGswY-2" value="SET initial Count to 0/ COUNT = 0" style="rounded=0;whiteSpace=wrap;html=1;" vertex="1" parent="1">
          <mxGeometry x="485" y="110" width="185" height="30" as="geometry" />
        </mxCell>
        <mxCell id="bBVAprVc6WiFZnPiGswY-16" style="edgeStyle=orthogonalEdgeStyle;rounded=0;orthogonalLoop=1;jettySize=auto;html=1;exitX=0.25;exitY=1;exitDx=0;exitDy=0;entryX=0.5;entryY=0;entryDx=0;entryDy=0;" edge="1" parent="1" source="bBVAprVc6WiFZnPiGswY-3" target="bBVAprVc6WiFZnPiGswY-4">
          <mxGeometry relative="1" as="geometry" />
        </mxCell>
        <mxCell id="bBVAprVc6WiFZnPiGswY-17" style="edgeStyle=orthogonalEdgeStyle;rounded=0;orthogonalLoop=1;jettySize=auto;html=1;exitX=0.75;exitY=1;exitDx=0;exitDy=0;entryX=0.5;entryY=0;entryDx=0;entryDy=0;" edge="1" parent="1" source="bBVAprVc6WiFZnPiGswY-3" target="bBVAprVc6WiFZnPiGswY-5">
          <mxGeometry relative="1" as="geometry" />
        </mxCell>
        <mxCell id="bBVAprVc6WiFZnPiGswY-3" value="Taking INPUT as Username and Password" style="rounded=0;whiteSpace=wrap;html=1;" vertex="1" parent="1">
          <mxGeometry x="440" y="170" width="277.5" height="30" as="geometry" />
        </mxCell>
        <mxCell id="bBVAprVc6WiFZnPiGswY-18" style="edgeStyle=orthogonalEdgeStyle;rounded=0;orthogonalLoop=1;jettySize=auto;html=1;exitX=0.5;exitY=1;exitDx=0;exitDy=0;entryX=0;entryY=0;entryDx=0;entryDy=0;" edge="1" parent="1" source="bBVAprVc6WiFZnPiGswY-4" target="bBVAprVc6WiFZnPiGswY-7">
          <mxGeometry relative="1" as="geometry" />
        </mxCell>
        <mxCell id="bBVAprVc6WiFZnPiGswY-4" value="Validate/Verify Username&amp;nbsp;" style="rounded=0;whiteSpace=wrap;html=1;" vertex="1" parent="1">
          <mxGeometry x="330" y="240" width="210" height="40" as="geometry" />
        </mxCell>
        <mxCell id="bBVAprVc6WiFZnPiGswY-19" style="edgeStyle=orthogonalEdgeStyle;rounded=0;orthogonalLoop=1;jettySize=auto;html=1;entryX=1;entryY=0;entryDx=0;entryDy=0;" edge="1" parent="1" source="bBVAprVc6WiFZnPiGswY-5" target="bBVAprVc6WiFZnPiGswY-7">
          <mxGeometry relative="1" as="geometry" />
        </mxCell>
        <mxCell id="bBVAprVc6WiFZnPiGswY-5" value="Validate/Verify Password" style="rounded=0;whiteSpace=wrap;html=1;" vertex="1" parent="1">
          <mxGeometry x="600" y="240" width="210" height="40" as="geometry" />
        </mxCell>
        <mxCell id="bBVAprVc6WiFZnPiGswY-22" style="edgeStyle=orthogonalEdgeStyle;rounded=0;orthogonalLoop=1;jettySize=auto;html=1;exitX=0;exitY=0.5;exitDx=0;exitDy=0;entryX=0.5;entryY=1;entryDx=0;entryDy=0;" edge="1" parent="1" source="bBVAprVc6WiFZnPiGswY-6" target="bBVAprVc6WiFZnPiGswY-9">
          <mxGeometry relative="1" as="geometry" />
        </mxCell>
        <mxCell id="bBVAprVc6WiFZnPiGswY-23" style="edgeStyle=orthogonalEdgeStyle;rounded=0;orthogonalLoop=1;jettySize=auto;html=1;exitX=1;exitY=0.5;exitDx=0;exitDy=0;entryX=0;entryY=0.5;entryDx=0;entryDy=0;" edge="1" parent="1" source="bBVAprVc6WiFZnPiGswY-6" target="bBVAprVc6WiFZnPiGswY-10">
          <mxGeometry relative="1" as="geometry" />
        </mxCell>
        <mxCell id="bBVAprVc6WiFZnPiGswY-6" value="COUNT = 3 ?" style="rhombus;whiteSpace=wrap;html=1;" vertex="1" parent="1">
          <mxGeometry x="520" y="410" width="80" height="60" as="geometry" />
        </mxCell>
        <mxCell id="bBVAprVc6WiFZnPiGswY-20" style="edgeStyle=orthogonalEdgeStyle;rounded=0;orthogonalLoop=1;jettySize=auto;html=1;exitX=0;exitY=0.5;exitDx=0;exitDy=0;entryX=0.5;entryY=0;entryDx=0;entryDy=0;" edge="1" parent="1" source="bBVAprVc6WiFZnPiGswY-7" target="bBVAprVc6WiFZnPiGswY-11">
          <mxGeometry relative="1" as="geometry" />
        </mxCell>
        <mxCell id="bBVAprVc6WiFZnPiGswY-21" style="edgeStyle=orthogonalEdgeStyle;rounded=0;orthogonalLoop=1;jettySize=auto;html=1;exitX=0.5;exitY=1;exitDx=0;exitDy=0;entryX=0.5;entryY=0;entryDx=0;entryDy=0;" edge="1" parent="1" source="bBVAprVc6WiFZnPiGswY-7" target="bBVAprVc6WiFZnPiGswY-6">
          <mxGeometry relative="1" as="geometry" />
        </mxCell>
        <mxCell id="bBVAprVc6WiFZnPiGswY-7" value="Valid?" style="rhombus;whiteSpace=wrap;html=1;" vertex="1" parent="1">
          <mxGeometry x="520" y="320" width="80" height="60" as="geometry" />
        </mxCell>
        <mxCell id="bBVAprVc6WiFZnPiGswY-33" style="edgeStyle=orthogonalEdgeStyle;rounded=0;orthogonalLoop=1;jettySize=auto;html=1;exitX=0.5;exitY=0;exitDx=0;exitDy=0;entryX=0;entryY=0.5;entryDx=0;entryDy=0;" edge="1" parent="1" source="bBVAprVc6WiFZnPiGswY-9" target="bBVAprVc6WiFZnPiGswY-2">
          <mxGeometry relative="1" as="geometry" />
        </mxCell>
        <mxCell id="bBVAprVc6WiFZnPiGswY-9" value="SET Count = count + 1" style="rounded=0;whiteSpace=wrap;html=1;" vertex="1" parent="1">
          <mxGeometry x="150" y="330" width="210" height="40" as="geometry" />
        </mxCell>
        <mxCell id="bBVAprVc6WiFZnPiGswY-24" style="edgeStyle=orthogonalEdgeStyle;rounded=0;orthogonalLoop=1;jettySize=auto;html=1;exitX=0.5;exitY=1;exitDx=0;exitDy=0;entryX=0.5;entryY=0;entryDx=0;entryDy=0;" edge="1" parent="1" source="bBVAprVc6WiFZnPiGswY-10" target="bBVAprVc6WiFZnPiGswY-12">
          <mxGeometry relative="1" as="geometry" />
        </mxCell>
        <mxCell id="bBVAprVc6WiFZnPiGswY-10" value="Failure/ All 3 Attempts Done" style="rounded=0;whiteSpace=wrap;html=1;" vertex="1" parent="1">
          <mxGeometry x="717.5" y="420" width="230" height="40" as="geometry" />
        </mxCell>
        <mxCell id="bBVAprVc6WiFZnPiGswY-25" style="edgeStyle=orthogonalEdgeStyle;rounded=0;orthogonalLoop=1;jettySize=auto;html=1;exitX=0.5;exitY=1;exitDx=0;exitDy=0;entryX=0;entryY=0.5;entryDx=0;entryDy=0;" edge="1" parent="1" source="bBVAprVc6WiFZnPiGswY-11" target="bBVAprVc6WiFZnPiGswY-12">
          <mxGeometry relative="1" as="geometry" />
        </mxCell>
        <mxCell id="bBVAprVc6WiFZnPiGswY-11" value="Display &quot;Login Successful&quot;" style="rounded=0;whiteSpace=wrap;html=1;" vertex="1" parent="1">
          <mxGeometry x="260" y="520" width="290" height="30" as="geometry" />
        </mxCell>
        <mxCell id="bBVAprVc6WiFZnPiGswY-12" value="END" style="rounded=1;whiteSpace=wrap;html=1;" vertex="1" parent="1">
          <mxGeometry x="610" y="580" width="110" height="30" as="geometry" />
        </mxCell>
        <mxCell id="bBVAprVc6WiFZnPiGswY-27" value="NO" style="text;html=1;align=center;verticalAlign=middle;resizable=0;points=[];autosize=1;strokeColor=none;fillColor=none;" vertex="1" parent="1">
          <mxGeometry x="570" y="380" width="40" height="30" as="geometry" />
        </mxCell>
        <mxCell id="bBVAprVc6WiFZnPiGswY-28" value="YES" style="text;html=1;align=center;verticalAlign=middle;resizable=0;points=[];autosize=1;strokeColor=none;fillColor=none;" vertex="1" parent="1">
          <mxGeometry x="450" y="350" width="50" height="30" as="geometry" />
        </mxCell>
        <mxCell id="bBVAprVc6WiFZnPiGswY-31" value="YES" style="text;html=1;align=center;verticalAlign=middle;resizable=0;points=[];autosize=1;strokeColor=none;fillColor=none;" vertex="1" parent="1">
          <mxGeometry x="620" y="410" width="50" height="30" as="geometry" />
        </mxCell>
        <mxCell id="bBVAprVc6WiFZnPiGswY-32" value="NO" style="text;html=1;align=center;verticalAlign=middle;resizable=0;points=[];autosize=1;strokeColor=none;fillColor=none;" vertex="1" parent="1">
          <mxGeometry x="450" y="410" width="40" height="30" as="geometry" />
        </mxCell>
      </root>
    </mxGraphModel>
  </diagram>
</mxfile>
